<svg width="24" height="24" viewBox="0 0 24 24" fill="none" xmlns="http://www.w3.org/2000/svg">
<path d="M15.8549 18.6933C16.0985 18.9393 16.2352 19.2716 16.2352 19.6179C16.2352 19.9641 16.0985 20.2964 15.8549 20.5424C15.7352 20.6639 15.5926 20.7604 15.4354 20.8263C15.2781 20.8921 15.1093 20.926 14.9388 20.926C14.7683 20.926 14.5995 20.8921 14.4422 20.8263C14.285 20.7604 14.1423 20.6639 14.0227 20.5424L6.78106 13.1533C6.53776 12.9067 6.40136 12.5742 6.40136 12.2278C6.40136 11.8814 6.53776 11.5489 6.78106 11.3022L14.0227 3.91311C14.1423 3.79163 14.285 3.69515 14.4422 3.6293C14.5995 3.56345 14.7683 3.52954 14.9388 3.52954C15.1093 3.52954 15.2781 3.56345 15.4354 3.6293C15.5926 3.69515 15.7352 3.79163 15.8549 3.91311C16.0985 4.15916 16.2352 4.49143 16.2352 4.8377C16.2352 5.18396 16.0985 5.51623 15.8549 5.76228L9.91596 12.2306L15.8549 18.6933Z" fill="white"/>
</svg>
