<svg width="29" height="28" viewBox="0 0 29 28" fill="none" xmlns="http://www.w3.org/2000/svg">
<path d="M25 14V22.1667C25 22.7855 24.7542 23.379 24.3166 23.8166C23.879 24.2542 23.2855 24.5 22.6667 24.5H6.33333C5.71449 24.5 5.121 24.2542 4.68342 23.8166C4.24583 23.379 4 22.7855 4 22.1667V5.83333C4 5.21449 4.24583 4.621 4.68342 4.18342C5.121 3.74583 5.71449 3.5 6.33333 3.5H14.5" stroke="#6984E4" stroke-width="2" stroke-linecap="round" stroke-linejoin="round"/>
<path d="M19.1665 5.8335H26.1665" stroke="#6984E4" stroke-width="2" stroke-linecap="round" stroke-linejoin="round"/>
<path d="M22.6665 2.3335V9.3335" stroke="#6984E4" stroke-width="2" stroke-linecap="round" stroke-linejoin="round"/>
<path d="M10.9998 12.8332C12.2885 12.8332 13.3332 11.7885 13.3332 10.4998C13.3332 9.21117 12.2885 8.1665 10.9998 8.1665C9.71117 8.1665 8.6665 9.21117 8.6665 10.4998C8.6665 11.7885 9.71117 12.8332 10.9998 12.8332Z" stroke="#6984E4" stroke-width="2" stroke-linecap="round" stroke-linejoin="round"/>
<path d="M25 17.4998L21.3997 13.8995C20.9621 13.462 20.3687 13.2163 19.75 13.2163C19.1313 13.2163 18.5379 13.462 18.1003 13.8995L7.5 24.4998" stroke="#6984E4" stroke-width="2" stroke-linecap="round" stroke-linejoin="round"/>
</svg>
