<svg width="16" height="16" viewBox="0 0 16 16" fill="none" xmlns="http://www.w3.org/2000/svg">
<path d="M2.0227 4.37106C1.85954 3.99034 1.41863 3.81398 1.0379 3.97715C0.657182 4.14031 0.480818 4.58122 0.643985 4.96194L2.0227 4.37106ZM10.3915 8.88564L10.1168 8.18775L10.1168 8.18775L10.3915 8.88564ZM6.23719 9.29468C6.4631 8.94749 6.36478 8.48291 6.01759 8.257C5.6704 8.03109 5.20582 8.12941 4.97991 8.4766L6.23719 9.29468ZM4.03804 9.92413C3.81213 10.2713 3.91045 10.7359 4.25764 10.9618C4.60482 11.1877 5.06941 11.0894 5.29532 10.7422L4.03804 9.92413ZM15.356 4.96194C15.5192 4.58122 15.3428 4.14031 14.9621 3.97715C14.5814 3.81398 14.1405 3.99034 13.9773 4.37106L15.356 4.96194ZM12.6667 7.41906L12.1534 6.87221L12.1534 6.87221L12.6667 7.41906ZM13.1363 8.94939C13.4292 9.24229 13.9041 9.24229 14.197 8.94939C14.4899 8.6565 14.4899 8.18163 14.197 7.88873L13.1363 8.94939ZM7.25001 10.9998C7.25001 11.4141 7.5858 11.7498 8.00001 11.7498C8.41422 11.7498 8.75001 11.4141 8.75001 10.9998H7.25001ZM10.7047 10.7422C10.9306 11.0894 11.3952 11.1877 11.7424 10.9618C12.0896 10.7359 12.1879 10.2713 11.962 9.92413L10.7047 10.7422ZM3.86367 7.94939C4.15657 7.6565 4.15657 7.18163 3.86367 6.88873C3.57078 6.59584 3.09591 6.59584 2.80301 6.88873L3.86367 7.94939ZM1.80301 7.88873C1.51012 8.18163 1.51012 8.6565 1.80301 8.94939C2.09591 9.24229 2.57078 9.24229 2.86367 8.94939L1.80301 7.88873ZM8.00001 8.58317C5.94279 8.58317 4.46134 7.56111 3.46627 6.4895C2.96896 5.95393 2.60368 5.41601 2.36323 5.01206C2.24343 4.81079 2.15579 4.64476 2.09922 4.53161C2.07096 4.4751 2.05054 4.43196 2.03782 4.40441C2.03146 4.39065 2.02703 4.3808 2.02452 4.37514C2.02326 4.37231 2.02248 4.37054 2.02218 4.36984C2.02203 4.3695 2.022 4.36942 2.02208 4.36963C2.02213 4.36973 2.0222 4.3699 2.0223 4.37014C2.02236 4.37026 2.02246 4.37049 2.02248 4.37055C2.02259 4.3708 2.0227 4.37106 1.33334 4.6665C0.643985 4.96194 0.644114 4.96225 0.644252 4.96257C0.644308 4.9627 0.644454 4.96304 0.644566 4.9633C0.644792 4.96382 0.645048 4.96442 0.645336 4.96508C0.645913 4.96641 0.646615 4.96803 0.647443 4.96993C0.649099 4.97372 0.65126 4.97864 0.65393 4.98464C0.659268 4.99664 0.66664 5.013 0.676069 5.03341C0.694922 5.07423 0.72203 5.13135 0.757575 5.20243C0.828608 5.3445 0.933675 5.54305 1.07429 5.77928C1.35468 6.25033 1.78106 6.87907 2.36708 7.51018C3.53868 8.7719 5.39057 10.0832 8.00001 10.0832V8.58317ZM10.1168 8.18775C9.49769 8.43143 8.79507 8.58317 8.00001 8.58317V10.0832C8.99157 10.0832 9.88014 9.89291 10.6662 9.58352L10.1168 8.18775ZM4.97991 8.4766L4.03804 9.92413L5.29532 10.7422L6.23719 9.29468L4.97991 8.4766ZM14.6667 4.6665C13.9773 4.37106 13.9774 4.37091 13.9774 4.37076C13.9775 4.37072 13.9775 4.37058 13.9776 4.37049C13.9776 4.37032 13.9777 4.37018 13.9778 4.37005C13.9779 4.3698 13.9779 4.36964 13.978 4.36957C13.978 4.36941 13.9779 4.36961 13.9777 4.37014C13.9772 4.37121 13.9762 4.37363 13.9745 4.37736C13.9712 4.38483 13.9654 4.39752 13.9573 4.41503C13.9409 4.45007 13.9149 4.50434 13.879 4.5747C13.8072 4.71559 13.6963 4.91998 13.5448 5.1631C13.2405 5.65149 12.7798 6.28423 12.1534 6.87221L13.18 7.96591C13.9259 7.26575 14.4653 6.52221 14.8179 5.95636C14.9948 5.67235 15.1266 5.43013 15.2153 5.25619C15.2597 5.16913 15.2934 5.09893 15.3168 5.04886C15.3285 5.02381 15.3375 5.00378 15.3441 4.98916C15.3473 4.98186 15.35 4.9759 15.352 4.97135C15.353 4.96907 15.3538 4.96714 15.3545 4.96557C15.3548 4.96479 15.3551 4.96409 15.3554 4.96349C15.3555 4.96319 15.3556 4.96291 15.3557 4.96265C15.3558 4.96252 15.3559 4.96234 15.3559 4.96228C15.356 4.96211 15.356 4.96194 14.6667 4.6665ZM12.1534 6.87221C11.5987 7.39287 10.9223 7.87068 10.1168 8.18775L10.6662 9.58352C11.6839 9.18292 12.5176 8.58764 13.18 7.96591L12.1534 6.87221ZM12.1363 7.94939L13.1363 8.94939L14.197 7.88873L13.197 6.88873L12.1363 7.94939ZM7.25001 9.33317V10.9998H8.75001V9.33317H7.25001ZM9.76283 9.29468L10.7047 10.7422L11.962 9.92413L11.0201 8.4766L9.76283 9.29468ZM2.80301 6.88873L1.80301 7.88873L2.86367 8.94939L3.86367 7.94939L2.80301 6.88873Z" fill="#D9D9D9"/>
</svg>
