<svg width="16" height="16" viewBox="0 0 16 16" fill="none" xmlns="http://www.w3.org/2000/svg">
<path d="M2.18326 10.197C1.61664 9.46082 1.33333 9.09275 1.33333 7.99984C1.33333 6.90692 1.61664 6.53886 2.18326 5.80272C3.31464 4.33288 5.21207 2.6665 8 2.6665C10.7879 2.6665 12.6854 4.33288 13.8167 5.80272C14.3834 6.53885 14.6667 6.90692 14.6667 7.99984C14.6667 9.09275 14.3834 9.46082 13.8167 10.197C12.6854 11.6668 10.7879 13.3332 8 13.3332C5.21207 13.3332 3.31464 11.6668 2.18326 10.197Z" stroke="#D9D9D9" stroke-width="1.5"/>
<path d="M10 8C10 9.10457 9.10457 10 8 10C6.89543 10 6 9.10457 6 8C6 6.89543 6.89543 6 8 6C9.10457 6 10 6.89543 10 8Z" stroke="#D9D9D9" stroke-width="1.5"/>
</svg>
