<svg width="147" height="30" viewBox="0 0 147 30" fill="none" xmlns="http://www.w3.org/2000/svg">
<path d="M11.8271 7.35938H8.83008L8.81934 17.7256C8.81217 18.234 8.75846 18.6816 8.6582 19.0684C8.55794 19.4551 8.40755 19.7773 8.20703 20.0352C8.02083 20.2858 7.78451 20.4756 7.49805 20.6045C7.21875 20.7262 6.89648 20.7871 6.53125 20.7871C6.19466 20.7871 5.89746 20.7298 5.63965 20.6152C5.38184 20.4935 5.16341 20.3145 4.98438 20.0781C4.79102 19.8203 4.64421 19.4945 4.54395 19.1006C4.45085 18.7067 4.40072 18.2484 4.39355 17.7256L4.38281 7.35938H1.36426L1.35352 17.7256C1.35352 18.5993 1.47526 19.3799 1.71875 20.0674C1.9694 20.7477 2.32031 21.3206 2.77148 21.7861C3.22266 22.2516 3.76335 22.6061 4.39355 22.8496C5.03092 23.0931 5.74349 23.2148 6.53125 23.2148C7.36914 23.2148 8.11393 23.0931 8.76562 22.8496C9.42448 22.6061 9.98307 22.248 10.4414 21.7754C10.8926 21.3099 11.2363 20.737 11.4727 20.0566C11.7161 19.3763 11.8379 18.5993 11.8379 17.7256L11.8271 7.35938ZM14.7275 23H17.7246V14.7393C17.8249 14.5817 17.9359 14.4385 18.0576 14.3096C18.1794 14.1807 18.3154 14.0697 18.4658 13.9766C18.652 13.8477 18.8633 13.751 19.0996 13.6865C19.3431 13.6221 19.6081 13.5898 19.8945 13.5898C20.2383 13.5898 20.5462 13.6257 20.8184 13.6973C21.0905 13.7617 21.3232 13.8799 21.5166 14.0518C21.71 14.2236 21.8568 14.46 21.957 14.7607C22.0645 15.0544 22.1182 15.4303 22.1182 15.8887V23H25.1045V15.8457C25.1045 15.0007 25.0042 14.2845 24.8037 13.6973C24.6104 13.1029 24.3382 12.6159 23.9873 12.2363C23.6292 11.8639 23.2067 11.5918 22.7197 11.4199C22.2327 11.248 21.6956 11.1621 21.1084 11.1621C20.6501 11.1621 20.2168 11.2266 19.8086 11.3555C19.4004 11.4844 19.0244 11.6706 18.6807 11.9141C18.4801 12.0573 18.2904 12.2184 18.1113 12.3975C17.9323 12.5765 17.7676 12.7734 17.6172 12.9883L17.4346 11.377H14.7275V23ZM28.7354 11.377V13.8154H32.0439V20.5723H28.7354V23H38.21V20.5723H35.0625V11.377H28.7354ZM31.8291 8.40137C31.8291 8.63053 31.8685 8.84538 31.9473 9.0459C32.0332 9.23926 32.1514 9.40397 32.3018 9.54004C32.4521 9.68327 32.6312 9.79427 32.8389 9.87305C33.0537 9.95182 33.29 9.99121 33.5479 9.99121C34.0778 9.99121 34.4967 9.8444 34.8047 9.55078C35.1198 9.25 35.2773 8.86686 35.2773 8.40137C35.2773 7.93587 35.1198 7.55632 34.8047 7.2627C34.4967 6.96191 34.0778 6.81152 33.5479 6.81152C33.29 6.81152 33.0537 6.85091 32.8389 6.92969C32.6312 7.00846 32.4521 7.11589 32.3018 7.25195C32.1514 7.39518 32.0332 7.56706 31.9473 7.76758C31.8685 7.96094 31.8291 8.1722 31.8291 8.40137Z" fill="#6984E4"/>
<path d="M51.9062 18.1016H48.8877C48.859 18.5742 48.7803 18.9788 48.6514 19.3154C48.5225 19.652 48.347 19.9277 48.125 20.1426C47.903 20.3574 47.6344 20.515 47.3193 20.6152C47.0042 20.7155 46.6497 20.7656 46.2559 20.7656C45.9622 20.7656 45.6937 20.7334 45.4502 20.6689C45.2139 20.5973 44.999 20.4899 44.8057 20.3467C44.6266 20.2178 44.4655 20.0566 44.3223 19.8633C44.1862 19.6699 44.068 19.4479 43.9678 19.1973C43.8245 18.832 43.7171 18.4059 43.6455 17.9189C43.5811 17.4248 43.5488 16.8662 43.5488 16.2432V14.1162C43.5488 13.6579 43.5703 13.2318 43.6133 12.8379C43.6562 12.4368 43.7243 12.0716 43.8174 11.7422C43.9391 11.3197 44.1003 10.9508 44.3008 10.6357C44.5085 10.3135 44.7591 10.0664 45.0527 9.89453C45.2246 9.79427 45.4108 9.71908 45.6113 9.66895C45.819 9.61882 46.041 9.59375 46.2773 9.59375C46.7214 9.59375 47.1009 9.65462 47.416 9.77637C47.7383 9.89095 48.0068 10.0628 48.2217 10.292C48.4294 10.5283 48.5869 10.8219 48.6943 11.1729C48.8089 11.5238 48.8805 11.932 48.9092 12.3975H51.917C51.8454 11.5811 51.6735 10.847 51.4014 10.1953C51.1292 9.54362 50.7568 8.99219 50.2842 8.54102C49.8115 8.08984 49.2386 7.74251 48.5654 7.49902C47.8994 7.25553 47.1367 7.13379 46.2773 7.13379C45.6973 7.13379 45.153 7.20898 44.6445 7.35938C44.1432 7.5026 43.6813 7.71029 43.2588 7.98242C42.7861 8.30469 42.3636 8.69857 41.9912 9.16406C41.6188 9.62956 41.318 10.1595 41.0889 10.7539C40.8883 11.2409 40.738 11.7708 40.6377 12.3438C40.5374 12.9095 40.4873 13.5075 40.4873 14.1377V16.2432C40.4873 16.9163 40.541 17.5537 40.6484 18.1553C40.763 18.7568 40.9242 19.3083 41.1318 19.8096C41.3467 20.3109 41.6081 20.7692 41.916 21.1846C42.2311 21.5999 42.5892 21.9544 42.9902 22.248C43.4271 22.5632 43.9176 22.8066 44.4619 22.9785C45.0133 23.1432 45.6113 23.2256 46.2559 23.2256C47.0723 23.2256 47.8171 23.1074 48.4902 22.8711C49.1634 22.6276 49.7435 22.2839 50.2305 21.8398C50.7174 21.3958 51.1042 20.8587 51.3906 20.2285C51.6842 19.5983 51.8561 18.8893 51.9062 18.1016ZM53.958 17.0811V17.3066C53.958 18.1589 54.0798 18.9466 54.3232 19.6699C54.5667 20.3861 54.9248 21.0091 55.3975 21.5391C55.863 22.069 56.4359 22.4844 57.1162 22.7852C57.8037 23.0788 58.5843 23.2256 59.458 23.2256C60.3245 23.2256 61.098 23.0788 61.7783 22.7852C62.4587 22.4844 63.0316 22.069 63.4971 21.5391C63.9626 21.0091 64.3171 20.3861 64.5605 19.6699C64.804 18.9466 64.9258 18.1589 64.9258 17.3066V17.0811C64.9258 16.236 64.804 15.4554 64.5605 14.7393C64.3171 14.016 63.9626 13.3893 63.4971 12.8594C63.0244 12.3294 62.4479 11.9141 61.7676 11.6133C61.0872 11.3125 60.3102 11.1621 59.4365 11.1621C58.5628 11.1621 57.7858 11.3125 57.1055 11.6133C56.4323 11.9141 55.863 12.3294 55.3975 12.8594C54.9248 13.3893 54.5667 14.016 54.3232 14.7393C54.0798 15.4554 53.958 16.236 53.958 17.0811ZM56.9443 17.3066V17.0811C56.9443 16.6084 56.9909 16.1608 57.084 15.7383C57.1771 15.3158 57.3239 14.9434 57.5244 14.6211C57.7249 14.2988 57.9827 14.0446 58.2979 13.8584C58.613 13.6722 58.9925 13.5791 59.4365 13.5791C59.8877 13.5791 60.2708 13.6722 60.5859 13.8584C60.901 14.0446 61.1589 14.2988 61.3594 14.6211C61.5527 14.9434 61.696 15.3158 61.7891 15.7383C61.8822 16.1608 61.9287 16.6084 61.9287 17.0811V17.3066C61.9287 17.7936 61.8822 18.252 61.7891 18.6816C61.696 19.1042 61.5527 19.473 61.3594 19.7881C61.1589 20.1104 60.901 20.3646 60.5859 20.5508C60.2708 20.737 59.8949 20.8301 59.458 20.8301C59.0068 20.8301 58.6201 20.737 58.2979 20.5508C57.9827 20.3646 57.7249 20.1104 57.5244 19.7881C57.3239 19.473 57.1771 19.1042 57.084 18.6816C56.9909 18.252 56.9443 17.7936 56.9443 17.3066ZM67.5791 23H70.5762V14.7393C70.6764 14.5817 70.7874 14.4385 70.9092 14.3096C71.0309 14.1807 71.167 14.0697 71.3174 13.9766C71.5036 13.8477 71.7148 13.751 71.9512 13.6865C72.1947 13.6221 72.4596 13.5898 72.7461 13.5898C73.0898 13.5898 73.3978 13.6257 73.6699 13.6973C73.9421 13.7617 74.1748 13.8799 74.3682 14.0518C74.5615 14.2236 74.7083 14.46 74.8086 14.7607C74.916 15.0544 74.9697 15.4303 74.9697 15.8887V23H77.9561V15.8457C77.9561 15.0007 77.8558 14.2845 77.6553 13.6973C77.4619 13.1029 77.1898 12.6159 76.8389 12.2363C76.4808 11.8639 76.0583 11.5918 75.5713 11.4199C75.0843 11.248 74.5472 11.1621 73.96 11.1621C73.5016 11.1621 73.0684 11.2266 72.6602 11.3555C72.252 11.4844 71.876 11.6706 71.5322 11.9141C71.3317 12.0573 71.1419 12.2184 70.9629 12.3975C70.7839 12.5765 70.6191 12.7734 70.4688 12.9883L70.2861 11.377H67.5791V23ZM80.792 23H83.7891V14.7393C83.8893 14.5817 84.0003 14.4385 84.1221 14.3096C84.2438 14.1807 84.3799 14.0697 84.5303 13.9766C84.7165 13.8477 84.9277 13.751 85.1641 13.6865C85.4076 13.6221 85.6725 13.5898 85.959 13.5898C86.3027 13.5898 86.6107 13.6257 86.8828 13.6973C87.1549 13.7617 87.3877 13.8799 87.5811 14.0518C87.7744 14.2236 87.9212 14.46 88.0215 14.7607C88.1289 15.0544 88.1826 15.4303 88.1826 15.8887V23H91.1689V15.8457C91.1689 15.0007 91.0687 14.2845 90.8682 13.6973C90.6748 13.1029 90.4027 12.6159 90.0518 12.2363C89.6937 11.8639 89.2712 11.5918 88.7842 11.4199C88.2972 11.248 87.7601 11.1621 87.1729 11.1621C86.7145 11.1621 86.2812 11.2266 85.873 11.3555C85.4648 11.4844 85.0889 11.6706 84.7451 11.9141C84.5446 12.0573 84.3548 12.2184 84.1758 12.3975C83.9967 12.5765 83.832 12.7734 83.6816 12.9883L83.499 11.377H80.792V23ZM99.6445 23.2148C100.769 23.2148 101.743 22.9964 102.566 22.5596C103.39 22.1227 103.992 21.6357 104.371 21.0986L102.878 19.4873C102.534 19.9313 102.087 20.2643 101.535 20.4863C100.984 20.7083 100.414 20.8193 99.8271 20.8193C99.4118 20.8193 99.0286 20.7549 98.6777 20.626C98.3268 20.4971 98.0153 20.3145 97.7432 20.0781C97.4782 19.849 97.2669 19.5947 97.1094 19.3154C96.9518 19.029 96.8229 18.653 96.7227 18.1875V18.1553H104.607V16.8877C104.607 16.0355 104.489 15.2585 104.253 14.5566C104.017 13.8477 103.673 13.2425 103.222 12.7412C102.763 12.2399 102.205 11.8532 101.546 11.5811C100.894 11.3018 100.149 11.1621 99.3115 11.1621C98.5023 11.1621 97.7539 11.3089 97.0664 11.6025C96.3789 11.8962 95.7845 12.3079 95.2832 12.8379C94.7819 13.3678 94.3916 14.0016 94.1123 14.7393C93.833 15.4697 93.6934 16.279 93.6934 17.167V17.5967C93.6934 18.3773 93.833 19.1113 94.1123 19.7988C94.3988 20.4792 94.8034 21.07 95.3262 21.5713C95.849 22.0798 96.4756 22.4808 97.2061 22.7744C97.9365 23.068 98.7493 23.2148 99.6445 23.2148ZM99.29 13.5791C99.6696 13.5791 100.003 13.64 100.289 13.7617C100.583 13.8763 100.83 14.0339 101.03 14.2344C101.231 14.4421 101.388 14.6855 101.503 14.9648C101.618 15.2441 101.675 15.5413 101.675 15.8564V16.0928H96.7764C96.848 15.7132 96.9554 15.3695 97.0986 15.0615C97.2419 14.7536 97.4209 14.4886 97.6357 14.2666C97.8434 14.0446 98.0869 13.8763 98.3662 13.7617C98.6455 13.64 98.9535 13.5791 99.29 13.5791ZM112.363 20.8301C111.883 20.8301 111.486 20.7334 111.171 20.54C110.863 20.3467 110.619 20.0889 110.44 19.7666C110.254 19.4515 110.125 19.0863 110.054 18.6709C109.982 18.2484 109.946 17.8115 109.946 17.3604V17.0381C109.946 16.5941 109.982 16.1644 110.054 15.749C110.132 15.3337 110.265 14.9648 110.451 14.6426C110.63 14.3203 110.874 14.0625 111.182 13.8691C111.49 13.6758 111.88 13.5791 112.353 13.5791C112.675 13.5791 112.972 13.6364 113.244 13.751C113.516 13.8584 113.749 14.0052 113.942 14.1914C114.136 14.3776 114.283 14.5996 114.383 14.8574C114.483 15.1152 114.526 15.3874 114.512 15.6738H117.326C117.34 14.9863 117.226 14.3669 116.982 13.8154C116.739 13.2568 116.399 12.7806 115.962 12.3867C115.518 12 114.992 11.6992 114.383 11.4844C113.774 11.2695 113.112 11.1621 112.396 11.1621C111.5 11.1621 110.713 11.3161 110.032 11.624C109.359 11.932 108.793 12.3509 108.335 12.8809C107.877 13.4108 107.533 14.0339 107.304 14.75C107.075 15.459 106.96 16.2217 106.96 17.0381V17.3604C106.96 18.1768 107.075 18.943 107.304 19.6592C107.54 20.3682 107.887 20.9876 108.346 21.5176C108.797 22.0475 109.363 22.4665 110.043 22.7744C110.723 23.0752 111.515 23.2256 112.417 23.2256C113.083 23.2256 113.713 23.1217 114.308 22.9141C114.909 22.6992 115.436 22.4056 115.887 22.0332C116.338 21.6608 116.692 21.2168 116.95 20.7012C117.215 20.1855 117.34 19.627 117.326 19.0254H114.512C114.526 19.2975 114.476 19.5446 114.361 19.7666C114.254 19.9886 114.1 20.1784 113.899 20.3359C113.699 20.4935 113.466 20.6152 113.201 20.7012C112.936 20.7871 112.657 20.8301 112.363 20.8301ZM125.909 8.53027H122.923V11.377H120.27V13.5791H122.923V18.8643C122.923 19.6305 123.023 20.2894 123.224 20.8408C123.424 21.3851 123.711 21.8327 124.083 22.1836C124.448 22.5417 124.889 22.8066 125.404 22.9785C125.927 23.1432 126.507 23.2256 127.145 23.2256C127.474 23.2256 127.807 23.2077 128.144 23.1719C128.487 23.1432 128.817 23.1003 129.132 23.043C129.447 22.9857 129.744 22.9141 130.023 22.8281C130.303 22.735 130.546 22.6276 130.754 22.5059L130.464 20.4541C130.328 20.4899 130.163 20.5257 129.97 20.5615C129.784 20.5973 129.583 20.6296 129.368 20.6582C129.146 20.694 128.913 20.7227 128.67 20.7441C128.434 20.7656 128.201 20.7764 127.972 20.7764C127.657 20.7764 127.37 20.7406 127.112 20.6689C126.862 20.5973 126.647 20.4756 126.468 20.3037C126.289 20.139 126.149 19.917 126.049 19.6377C125.956 19.3512 125.909 18.9967 125.909 18.5742V13.5791H130.249V11.377H125.909V8.53027Z" fill="#D9D9D9"/>
</svg>
