<svg width="159" height="159" viewBox="0 0 159 159" fill="none" xmlns="http://www.w3.org/2000/svg">
<path d="M79.5 0C100.585 0 120.806 8.37587 135.715 23.285C150.624 38.1941 159 58.4153 159 79.5C159 100.585 150.624 120.806 135.715 135.715C120.806 150.624 100.585 159 79.5 159C58.4153 159 38.1941 150.624 23.285 135.715C8.37587 120.806 0 100.585 0 79.5C0 58.4153 8.37587 38.1941 23.285 23.285C38.1941 8.37587 58.4153 0 79.5 0ZM69.5966 95.1842L51.9362 77.5125C51.3031 76.8794 50.5515 76.3772 49.7243 76.0345C48.8971 75.6919 48.0105 75.5155 47.1151 75.5155C46.2197 75.5155 45.3331 75.6919 44.5059 76.0345C43.6787 76.3772 42.9271 76.8794 42.294 77.5125C41.0154 78.7911 40.297 80.5253 40.297 82.3336C40.297 84.1419 41.0154 85.8761 42.294 87.1547L64.7811 109.642C65.4125 110.278 66.1635 110.783 66.991 111.128C67.8184 111.472 68.7059 111.65 69.6022 111.65C70.4986 111.65 71.3861 111.472 72.2135 111.128C73.041 110.783 73.792 110.278 74.4234 109.642L120.988 63.0662C121.629 62.4357 122.14 61.6844 122.489 60.8557C122.839 60.027 123.021 59.1372 123.026 58.2377C123.03 57.3382 122.856 56.4467 122.514 55.6148C122.172 54.7828 121.668 54.0268 121.033 53.3904C120.397 52.754 119.642 52.2497 118.81 51.9067C117.978 51.5636 117.087 51.3886 116.188 51.3917C115.288 51.3949 114.398 51.5761 113.569 51.9249C112.74 52.2737 111.988 52.7832 111.357 53.424L69.5966 95.1842Z" fill="#6984E4"/>
</svg>
