<svg width="24" height="25" viewBox="0 0 24 25" fill="none" xmlns="http://www.w3.org/2000/svg">
<path d="M21 10.0289C21.2652 10.0289 21.5196 9.92356 21.7071 9.73602C21.8946 9.54849 22 9.29413 22 9.02892V6.02892C22 5.81909 21.9339 5.61459 21.8111 5.44443C21.6884 5.27426 21.5151 5.14708 21.316 5.08092L12.316 2.08092C12.1108 2.01274 11.8892 2.01274 11.684 2.08092L2.684 5.08092C2.48487 5.14708 2.31164 5.27426 2.18886 5.44443C2.06609 5.61459 2.00001 5.81909 2 6.02892V9.02892C2 9.29413 2.10536 9.54849 2.29289 9.73602C2.48043 9.92356 2.73478 10.0289 3 10.0289H4V17.2129C3.41669 17.4184 2.91128 17.7994 2.55318 18.3036C2.19507 18.8078 2.00184 19.4105 2 20.0289V22.0289C2 22.2941 2.10536 22.5485 2.29289 22.736C2.48043 22.9236 2.73478 23.0289 3 23.0289H21C21.2652 23.0289 21.5196 22.9236 21.7071 22.736C21.8946 22.5485 22 22.2941 22 22.0289V20.0289C21.9982 19.4105 21.8049 18.8078 21.4468 18.3036C21.0887 17.7994 20.5833 17.4184 20 17.2129V10.0289H21ZM20 21.0289H4V20.0289C4.00026 19.7638 4.10571 19.5096 4.29319 19.3221C4.48066 19.1346 4.73486 19.0292 5 19.0289H19C19.2651 19.0292 19.5193 19.1346 19.7068 19.3221C19.8943 19.5096 19.9997 19.7638 20 20.0289V21.0289ZM6 17.0289V10.0289H8V17.0289H6ZM10 17.0289V10.0289H14V17.0289H10ZM16 17.0289V10.0289H18V17.0289H16ZM4 8.02892V6.74892L12 4.08292L20 6.74992V8.02892H4Z" fill="#D9D9D9"/>
</svg>
